<?xml version="1.0" encoding="utf-8"?>
<svg xmlns="http://www.w3.org/2000/svg" viewBox="63.6 114.3 375.7 272.5"
 width="375.753px" height="272.499px">
  <path fill="#A13CF8" opacity="1.000000" stroke="none" d="M 63.577 386.603 L 325 127.6 L 325 207 L 439.33 207.002 L 439.33 240.111 L 324.958 240.111 L 324.958 280.2 L 439.3 280.2 L 439.3 312.9 L 291.357 312.906 L 291.357 207.631 L 109 386.8 L 63.6 386.5 L 63.6 386.8 Z"/>
  <path fill="#040404" opacity="1.000000" stroke="none" d="M 88.134 350.503 L 88.134 172.702 L 135.259 199.647 L 138.8 201.8 L 138.8 222.023 L 127.103 228.417 L 127.1 313 L 91.342 347.68 L 88.134 350.503 Z"/>
  <path fill="#A23DF8" opacity="1.000000" stroke="none" d="M 291.4 386.8 L 291.4 354.1 L 439.3 354.1 L 439.3 386.8 Z"/>
  <path fill="#020202" opacity="1.000000" stroke="none" d="M 223.526 153.492 L 211.750 146.813 L 211.750 228.876 L 173.803 268.602 L 173.841 114.301 L 223.500 142.300 L 223.526 153.492 Z"/>
  <path fill="#030303" opacity="1.000000" stroke="none" d="M 129.873 309.723 L 129.873 230.794 L 170.687 207.426 L 170.687 270.3 L 129.873 309.723 Z"/>
  <path fill="#030303" opacity="1.000000" stroke="none" d="M 215.193 152.458 L 260.579 178.562 L 215.193 225.865 L 215.193 152.458 Z"/>
</svg>
